<?xml version="1.0" standalone="no"?>
<!DOCTYPE svg PUBLIC "-//W3C//DTD SVG 1.1//EN" "http://www.w3.org/Graphics/SVG/1.1/DTD/svg11.dtd" >
<svg xmlns="http://www.w3.org/2000/svg" xmlns:xlink="http://www.w3.org/1999/xlink" version="1.1">
<metadata>
Created by FontForge 20161013 at Wed Sep 11 02:03:48 2013
 By ,,,
HTF Gotham Copr. 2000 The Hoefler Type Foundry, Inc. Info: www.typography.com
</metadata>
<defs>
<font id="GothamHTF-Medium" horiz-adv-x="1024" >
  <font-face 
    font-family="GothamHTF-Medium"
    font-weight="500"
    font-stretch="normal"
    units-per-em="2048"
    panose-1="0 0 0 0 0 0 0 0 0 0"
    ascent="1638"
    descent="-410"
    x-height="1081"
    cap-height="1434"
    bbox="-143 -338.028 2417.01 1888"
    underline-thickness="40"
    underline-position="-332"
    unicode-range="U+0020-FB02"
  />
<missing-glyph 
 />
    <glyph glyph-name=".notdef" 
 />
    <glyph glyph-name=".null" horiz-adv-x="0" 
 />
    <glyph glyph-name="nonmarkingreturn" horiz-adv-x="681" 
 />
    <glyph glyph-name="space" unicode=" " horiz-adv-x="614" 
 />
    <glyph glyph-name="exclam" unicode="!" horiz-adv-x="618" 
d="M446 0h-272v281h272v-281zM164 1434h291v-72l-76 -909h-137l-78 909v72z" />
    <glyph glyph-name="quotedbl" unicode="&#x22;" horiz-adv-x="997" 
d="M451 1434v-11l-199 -602h-129l47 613h281zM901 1434v-11l-201 -602h-129l50 613h280z" />
    <glyph glyph-name="numbersign" unicode="#" horiz-adv-x="1433" 
d="M915 899h-335l-62 -356h336zM1352 899h-219l-60 -356h205v-213h-242l-57 -330h-219l57 330h-336l-55 -330h-219l57 330h-184v213h221l59 356h-204v213h241l56 322h219l-56 -322h336l54 322h219l-56 -322h183v-213z" />
    <glyph glyph-name="dollar" unicode="$" horiz-adv-x="1314" 
d="M956 384q0 73 -43 117t-159 79v-371q96 8 149 55t53 120zM395 1056q0 -68 42 -112q42 -43 155 -78v361q-94 -7 -146 -55t-51 -116zM1198 398q0 -167 -120 -273t-316 -123v-203h-178v205q-266 31 -484 203l131 186q184 -150 361 -176v401q-230 60 -334 156t-104 263
t117 274q118 106 313 123v118h178v-122q211 -27 385 -156l-115 -193q-133 100 -278 131v-389q233 -59 339 -158q105 -100 105 -267z" />
    <glyph glyph-name="percent" unicode="%" horiz-adv-x="1738" 
d="M1458 349q0 89 -45 149t-114 61q-69 0 -111 -59q-42 -58 -41 -148q0 -90 45 -150t114 -60q68 0 110 58q42 60 42 149zM592 1082q0 90 -45 150t-114 60t-111 -59t-41 -149q0 -90 45 -149q46 -61 114 -61t110 60t42 148zM965 349q0 153 95 261q96 108 244 107t242 -107
t94 -259t-95 -261t-243 -106q-148 0 -243 106q-94 106 -94 259zM1495 1434l-1049 -1434h-202l1048 1434h203zM437 1450q149 0 243 -106t94 -260q0 -152 -95 -260t-243 -108t-243 107q-95 106 -95 259q0 152 96 260t243 108z" />
    <glyph glyph-name="ampersand" unicode="&#x26;" horiz-adv-x="1425" 
d="M334 399q0 -92 68 -151t171 -60q140 0 271 125l-320 326q-190 -82 -190 -240zM836 1094q0 76 -45 120t-120 46q-75 0 -122 -48t-47 -136q0 -87 108 -206q114 40 170 94t56 130zM547 -20q-203 0 -335 112t-132 299q0 272 305 404q-119 153 -119 303t113 255t290 105
t283 -99t107 -249q0 -256 -316 -375l246 -250q78 117 154 277l190 -100q-98 -197 -194 -328l225 -230l-186 -133l-191 195q-201 -186 -440 -186z" />
    <glyph glyph-name="quotesingle" unicode="'" horiz-adv-x="550" 
d="M455 1434v-11l-201 -602h-131l47 613h285z" />
    <glyph glyph-name="parenleft" unicode="(" horiz-adv-x="901" 
d="M377 588q0 -225 103 -395t325 -316l-109 -166q-567 311 -567 877t567 876l109 -166q-221 -145 -325 -315t-103 -395z" />
    <glyph glyph-name="parenright" unicode=")" horiz-adv-x="901" 
d="M774 588q0 -563 -567 -877l-109 166q220 145 324 315t104 396q0 225 -103 395q-104 170 -325 315l109 166q567 -313 567 -876z" />
    <glyph glyph-name="asterisk" unicode="*" horiz-adv-x="880" 
d="M762 1008l-74 -125l-205 149l29 -250h-143l28 250l-204 -149l-74 125l233 102l-233 102l74 125l204 -149l-28 250h143l-29 -250l205 149l74 -125l-234 -102z" />
    <glyph glyph-name="plus" unicode="+" horiz-adv-x="1310" 
d="M539 834v391h233v-391h393v-226h-393v-391h-233v391h-394v226h394z" />
    <glyph glyph-name="comma" unicode="," horiz-adv-x="550" 
d="M139 0v281h273v-238q0 -166 -78 -247t-238 -93l-26 104q188 37 174 193h-105z" />
    <glyph glyph-name="hyphen" unicode="-" horiz-adv-x="835" 
d="M721 506h-606v244h606v-244z" />
    <glyph glyph-name="period" unicode="." horiz-adv-x="550" 
d="M412 0h-273v281h273v-281z" />
    <glyph glyph-name="slash" unicode="/" horiz-adv-x="1067" 
d="M874 1634h216l-926 -1896h-215z" />
    <glyph glyph-name="zero" unicode="0" horiz-adv-x="1482" 
d="M1106 715q0 219 -101 367t-265 148t-264 -144q-99 -146 -99 -366t101 -368t265 -149q164 0 264 146q99 147 99 366zM1366 719q0 -315 -175 -529t-451 -215q-276 0 -450 212q-173 211 -173 527t175 530t451 214q275 0 449 -212t174 -527z" />
    <glyph glyph-name="one" unicode="1" horiz-adv-x="811" 
d="M614 1444v-1444h-249v1188l-259 -72l-53 205l385 123h176z" />
    <glyph glyph-name="two" unicode="2" horiz-adv-x="1255" 
d="M862 1010q0 98 -66 158t-162 61q-97 0 -172 -51t-163 -164l-178 139q111 157 229 229t316 72t327 -119t129 -295t-82 -290t-290 -283l-295 -246h682v-221h-1037v199l494 419q152 127 210 210q58 84 58 182z" />
    <glyph glyph-name="three" unicode="3" horiz-adv-x="1265" 
d="M168 1214v220h948v-189l-399 -409q186 -25 304 -122t118 -291q-1 -194 -141 -321t-361 -127q-342 0 -549 252l176 164q160 -188 377 -188q109 0 179 60q70 61 69 163q0 102 -88 160t-242 59h-117l-41 158l387 411h-620z" />
    <glyph glyph-name="four" unicode="4" horiz-adv-x="1394" 
d="M844 528v568l-471 -568h471zM1085 1444v-916h205v-206h-205v-322h-241v322h-723l-47 180l796 942h215z" />
    <glyph glyph-name="five" unicode="5" horiz-adv-x="1273" 
d="M1090 1434v-224h-639l-23 -336q113 41 227 41q221 0 360 -115q138 -116 138 -337t-145 -354t-385 -134q-301 0 -527 220l156 182q184 -172 369 -172q129 1 207 69t77 180q0 112 -81 176t-213 64t-267 -63l-151 100l40 703h857z" />
    <glyph glyph-name="six" unicode="6" horiz-adv-x="1343" 
d="M971 453q0 113 -81 183t-212 71q-131 0 -211 -74q-80 -73 -80 -183t82 -184t214 -74t210 74t78 187zM720 1229q-152 0 -242 -126q-89 -126 -99 -329q147 144 353 144t348 -121t142 -334t-152 -350q-154 -137 -390 -137t-389 149q-86 88 -130 216t-44 335q0 344 161 563
t453 219q239 0 438 -160l-135 -194q-162 125 -314 125z" />
    <glyph glyph-name="seven" unicode="7" horiz-adv-x="1247" 
d="M139 1212v222h1008v-191l-647 -1243h-283l643 1212h-721z" />
    <glyph glyph-name="eight" unicode="8" horiz-adv-x="1290" 
d="M946 410q0 96 -86 156t-215 60t-215 -60t-86 -156t82 -158t219 -62t219 62t82 158zM901 1036q0 90 -72 148q-73 58 -185 59q-112 0 -184 -58q-72 -57 -71 -147q0 -90 73 -150q74 -60 184 -60t182 58q72 60 73 150zM1192 397q0 -190 -154 -304q-154 -113 -392 -113
t-394 114q-154 114 -154 297q0 244 258 352q-209 111 -209 322q-1 165 141 277t357 112t356 -112t142 -277q0 -211 -209 -322q258 -119 258 -346z" />
    <glyph glyph-name="nine" unicode="9" horiz-adv-x="1343" 
d="M956 977q0 113 -82 189t-215 75q-133 0 -209 -77q-76 -78 -77 -192q0 -114 80 -186t213 -72q134 0 212 76q78 74 78 187zM1227 770q0 -364 -165 -580t-450 -215q-252 0 -458 172l137 193q159 -135 321 -135t254 124t99 326q-127 -151 -346 -151t-359 124
q-139 124 -139 336t149 353q150 141 390 141t393 -151q174 -173 174 -537z" />
    <glyph glyph-name="colon" unicode=":" horiz-adv-x="571" 
d="M422 0h-272v281h272v-281zM422 801h-272v280h272v-280z" />
    <glyph glyph-name="semicolon" unicode=";" horiz-adv-x="571" 
d="M150 0v281h272v-238q0 -166 -78 -247t-238 -93l-26 104q188 37 174 193h-104zM422 801h-272v280h272v-280z" />
    <glyph glyph-name="less" unicode="&#x3c;" horiz-adv-x="1310" 
d="M143 831l977 453v-235l-731 -326l731 -328v-237l-977 452v221z" />
    <glyph glyph-name="equal" unicode="=" horiz-adv-x="1310" 
d="M176 580h959v-230h-959v230zM176 1092h959v-230h-959v230z" />
    <glyph glyph-name="greater" unicode="&#x3e;" horiz-adv-x="1310" 
d="M1167 610l-977 -452v235l732 326l-732 328v237l977 -453v-221z" />
    <glyph glyph-name="question" unicode="?" horiz-adv-x="1107" 
d="M639 0h-274v281h274v-281zM772 1026q0 88 -63 142t-172 55q-182 0 -334 -162l-154 164q201 227 494 227q217 0 348 -113t131 -300t-113 -287t-299 -134l-20 -165h-166l-41 331l10 11q379 14 379 231z" />
    <glyph glyph-name="at" unicode="@" horiz-adv-x="2007" 
d="M719 552q0 -120 59 -178t165 -58t191 94q85 96 85 212q1 116 -61 176q-62 62 -166 62t-188 -94q-85 -94 -85 -214zM1898 647q0 -246 -114 -378t-283 -132q-213 0 -303 144q-139 -143 -307 -143t-275 107q-106 108 -106 279q0 213 141 363q141 149 327 149t286 -151
l24 123l199 -31l-90 -516q-10 -61 -11 -88q0 -68 44 -107t116 -39q115 0 193 110t78 310q0 291 -236 512q-237 221 -579 221t-577 -238q-235 -239 -235 -582q0 -342 236 -578t596 -236q268 0 506 137l37 -61q-252 -154 -543 -154q-389 0 -651 261t-262 631t261 634t636 264
q184 0 351 -68q326 -132 472 -438q69 -147 69 -305z" />
    <glyph glyph-name="A" unicode="A" horiz-adv-x="1617" 
d="M1053 569l-248 574l-246 -574h494zM926 1444l630 -1444h-266l-145 346h-678l-148 -346h-258l631 1444h234z" />
    <glyph glyph-name="B" unicode="B" horiz-adv-x="1478" 
d="M850 223q131 0 204 51t72 148q0 195 -295 194h-399v-393h418zM776 829q125 1 198 51t73 142t-66 140t-186 48h-363v-381h344zM827 1434q217 0 344 -100t127 -267q0 -215 -204 -322q285 -96 284 -350q0 -191 -143 -293t-387 -102h-664v1434h643z" />
    <glyph glyph-name="C" unicode="C" horiz-adv-x="1511" 
d="M121 714q0 312 209 528t530 216q186 0 316 -57t245 -166l-161 -186q-193 178 -400 178q-207 -1 -341 -147t-134 -361t135 -363t338 -149q123 0 217 46t195 140l162 -164q-121 -127 -256 -190t-326 -64q-311 0 -520 214q-209 213 -209 525z" />
    <glyph glyph-name="D" unicode="D" horiz-adv-x="1601" 
d="M719 229q223 1 361 137t137 350q1 214 -137 351t-361 137h-283v-975h283zM1481 719q0 -307 -214 -513t-548 -206h-535v1434h535q334 0 548 -204t214 -511z" />
    <glyph glyph-name="E" unicode="E" horiz-adv-x="1372" 
d="M1247 1434v-226h-811v-372h719v-226h-719v-385h821v-225h-1073v1434h1063z" />
    <glyph glyph-name="F" unicode="F" horiz-adv-x="1343" 
d="M1251 1434v-230h-815v-391h723v-229h-723v-584h-252v1434h1067z" />
    <glyph glyph-name="G" unicode="G" horiz-adv-x="1605" 
d="M121 708q0 314 210 532t529 218q180 0 307 -48t244 -146l-160 -191q-90 78 -181 116t-220 38q-197 -1 -331 -149t-134 -366t135 -362t344 -145q209 0 355 108v269h-367v219h610v-602q-260 -223 -595 -223t-541 209t-205 523z" />
    <glyph glyph-name="H" unicode="H" horiz-adv-x="1556" 
d="M1120 604h-684v-604h-252v1434h252v-596h684v596h252v-1434h-252v604z" />
    <glyph glyph-name="I" unicode="I" horiz-adv-x="649" 
d="M199 1434h252v-1434h-252v1434z" />
    <glyph glyph-name="J" unicode="J" horiz-adv-x="1144" 
d="M983 487q0 -247 -131 -377t-350 -130q-289 0 -459 231l166 170q133 -168 289 -168q104 0 166 71q61 71 61 210v940h258v-947z" />
    <glyph glyph-name="K" unicode="K" horiz-adv-x="1484" 
d="M436 0h-252v1434h252v-721l682 721h309l-596 -617l623 -817h-305l-490 645l-223 -229v-416z" />
    <glyph glyph-name="L" unicode="L" horiz-adv-x="1267" 
d="M184 0v1434h252v-1205h754v-229h-1006z" />
    <glyph glyph-name="M" unicode="M" horiz-adv-x="1777" 
d="M432 0h-248v1434h269l436 -678l436 678h268v-1434h-252v1028l-452 -676h-8l-449 672v-1024z" />
    <glyph glyph-name="N" unicode="N" horiz-adv-x="1617" 
d="M1186 1434h248v-1434h-211l-791 1020v-1020h-248v1434h234l768 -992v992z" />
    <glyph glyph-name="O" unicode="O" horiz-adv-x="1740" 
d="M1356 715q0 213 -138 363t-350 149q-212 1 -347 -147q-136 -148 -136 -361t138 -363t349 -150t348 148q136 148 136 361zM1620 719q0 -309 -213 -526t-539 -217t-536 214t-211 524q0 310 213 527q212 217 538 217t537 -215t211 -524z" />
    <glyph glyph-name="P" unicode="P" horiz-adv-x="1368" 
d="M729 688q141 0 225 70t84 192q0 121 -83 188t-226 66h-293v-516h293zM750 1434q250 0 397 -132t147 -357q0 -226 -162 -355t-411 -129h-285v-461h-252v1434h566z" />
    <glyph glyph-name="Q" unicode="Q" horiz-adv-x="1740" 
d="M1356 715q0 213 -138 363t-350 149q-212 1 -347 -147q-136 -148 -136 -361t138 -363t349 -149q137 -1 246 69l-246 209l162 185l248 -226q74 113 74 271zM121 714q0 310 213 527q212 217 538 217t537 -215t211 -524q0 -246 -145 -443l163 -139l-161 -180l-172 154
q-195 -135 -437 -136q-326 0 -536 215q-210 214 -211 524z" />
    <glyph glyph-name="R" unicode="R" horiz-adv-x="1480" 
d="M805 723q135 -1 215 65t80 180t-78 175t-219 61h-367v-481h369zM436 500v-500h-252v1434h639q248 0 390 -122t143 -333q0 -172 -92 -283t-250 -153l387 -543h-297l-352 500h-316z" />
    <glyph glyph-name="S" unicode="S" horiz-adv-x="1310" 
d="M397 1053q0 -80 69 -126q69 -45 289 -99q219 -54 331 -150t112 -282t-141 -301q-141 -116 -371 -115q-342 0 -598 229l152 180q215 -186 452 -186q117 0 186 49q68 49 68 132t-65 130q-66 47 -287 100q-221 54 -335 144t-114 277q-1 187 137 303t353 116q295 0 520 -180
l-135 -191q-199 147 -389 148q-109 0 -171 -49t-63 -129z" />
    <glyph glyph-name="T" unicode="T" horiz-adv-x="1327" 
d="M791 1200v-1200h-254v1200h-455v234h1163v-234h-454z" />
    <glyph glyph-name="U" unicode="U" horiz-adv-x="1550" 
d="M1389 1434v-813q0 -313 -164 -479t-451 -165q-288 0 -450 162t-162 469v826h252v-816q0 -197 96 -303t266 -106t265 102t96 297v826h252z" />
    <glyph glyph-name="V" unicode="V" horiz-adv-x="1536" 
d="M772 332l430 1102h273l-596 -1444h-222l-596 1444h279z" />
    <glyph glyph-name="W" unicode="W" horiz-adv-x="2285" 
d="M688 371l352 1067h213l353 -1067l342 1063h264l-500 -1444h-217l-352 1030l-352 -1030h-218l-499 1444h272z" />
    <glyph glyph-name="X" unicode="X" horiz-adv-x="1492" 
d="M1417 0h-297l-377 543l-378 -543h-289l522 729l-502 705h297l357 -514l358 514h289l-500 -701z" />
    <glyph glyph-name="Y" unicode="Y" horiz-adv-x="1466" 
d="M860 0h-254v565l-569 869h297l401 -635l406 635h289l-570 -863v-571z" />
    <glyph glyph-name="Z" unicode="Z" horiz-adv-x="1437" 
d="M160 1210v224h1147v-187l-846 -1024h846v-223h-1174v186l846 1024h-819z" />
    <glyph glyph-name="bracketleft" unicode="[" horiz-adv-x="929" 
d="M809 1434v-195h-393v-1311h393v-194h-629v1700h629z" />
    <glyph glyph-name="backslash" unicode="\" horiz-adv-x="1067" 
d="M193 1634l925 -1896h-215l-926 1896h216z" />
    <glyph glyph-name="bracketright" unicode="]" horiz-adv-x="929" 
d="M121 1434h631v-1700h-631v194h393v1311h-393v195z" />
    <glyph glyph-name="asciicircum" unicode="^" 
d="M510 1280l-209 -270h-186l309 426h176l309 -426h-190z" />
    <glyph glyph-name="underscore" unicode="_" horiz-adv-x="1228" 
d="M-4 -135h1237v-193h-1237v193z" />
    <glyph glyph-name="grave" unicode="`" 
d="M504 1219l-250 235l225 100l217 -335h-192z" />
    <glyph glyph-name="a" unicode="a" horiz-adv-x="1202" 
d="M823 391v68q-111 43 -238 43t-193 -46t-64 -128v-4q0 -74 59 -117t167 -43t188 64t81 163zM1063 0h-246v133q-131 -156 -350 -156q-161 -1 -273 89t-112 245v4q0 170 121 259q121 90 298 90t318 -46v27q0 231 -275 231q-138 0 -300 -67l-68 199q200 90 424 90t344 -119
t119 -338v-641z" />
    <glyph glyph-name="b" unicode="b" horiz-adv-x="1372" 
d="M1022 540q0 157 -90 253t-220 96t-222 -97t-93 -251q0 -154 92 -251q91 -97 223 -97t221 95t89 252zM1274 541q0 -258 -150 -411t-364 -153t-357 191v-168h-247v1495h247v-594q143 203 357 203t364 -152t150 -411z" />
    <glyph glyph-name="c" unicode="c" horiz-adv-x="1169" 
d="M96 538q0 234 161 400t411 166t422 -186l-154 -166q-130 135 -272 135q-142 -1 -231 -101t-89 -246t91 -248t237 -102t276 136l150 -148q-88 -98 -192 -150t-251 -53q-239 0 -399 164t-160 399z" />
    <glyph glyph-name="d" unicode="d" horiz-adv-x="1372" 
d="M975 541q0 154 -92 251t-222 97q-131 0 -221 -95t-90 -252t91 -253t221 -96t221 97q92 97 92 251zM1219 0h-248v180q-143 -203 -357 -203t-364 153t-150 411q0 259 148 411t362 152q213 0 361 -191v582h248v-1495z" />
    <glyph glyph-name="e" unicode="e" horiz-adv-x="1236" 
d="M626 901q-116 0 -192 -79t-92 -206h555q-12 125 -84 205q-71 80 -187 80zM655 178q160 0 293 129l146 -129q-168 -203 -443 -203q-239 0 -397 158t-158 401q0 242 150 406t388 164t374 -167q135 -167 135 -417q0 -18 -4 -67h-795q20 -129 104 -202t207 -73z" />
    <glyph glyph-name="f" unicode="f" horiz-adv-x="770" 
d="M455 1073h286v-205h-282v-868h-248v868h-137v207h137v78q0 354 332 354q104 0 200 -28v-209q-80 27 -145 26q-143 0 -143 -163v-60z" />
    <glyph glyph-name="g" unicode="g" horiz-adv-x="1372" 
d="M975 595q0 132 -92 216q-93 84 -225 84t-220 -83t-88 -216t89 -217t219 -84t224 84q93 84 93 216zM1219 221q0 -553 -582 -553q-270 0 -483 129l92 187q184 -115 368 -115q360 0 359 332v84q-154 -199 -368 -199t-359 138q-146 138 -146 370t146 370q146 140 359 140
q212 0 366 -184v161h248v-860z" />
    <glyph glyph-name="h" unicode="h" horiz-adv-x="1269" 
d="M403 610v-610h-247v1495h247v-582q129 190 338 191q181 0 283 -113t102 -303v-688h-247v614q-1 127 -61 196t-170 69t-178 -72t-67 -197z" />
    <glyph glyph-name="i" unicode="i" horiz-adv-x="585" 
d="M418 0h-248v1081h248v-1081zM426 1247h-266v236h266v-236z" />
    <glyph glyph-name="j" unicode="j" horiz-adv-x="585" 
d="M170 1081h248v-1095q0 -319 -316 -320q-53 0 -118 10v199q37 -6 69 -6q117 0 117 131v1081zM426 1247h-266v236h266v-236z" />
    <glyph glyph-name="k" unicode="k" horiz-adv-x="1191" 
d="M403 0h-247v1495h247v-893l449 479h301l-430 -440l444 -641h-286l-326 467l-152 -158v-309z" />
    <glyph glyph-name="l" unicode="l" horiz-adv-x="585" 
d="M418 0h-248v1495h248v-1495z" />
    <glyph glyph-name="m" unicode="m" horiz-adv-x="1945" 
d="M1800 690v-690h-248v614q0 129 -57 197t-161 68t-168 -71t-64 -198v-610h-248v616q0 125 -57 194t-161 69t-168 -73t-65 -198v-608h-247v1081h247v-163q135 186 330 186q226 -1 322 -191q145 190 366 191q179 0 279 -109t100 -305z" />
    <glyph glyph-name="n" unicode="n" horiz-adv-x="1269" 
d="M403 610v-610h-247v1081h247v-168q129 190 338 191q181 0 283 -113t102 -303v-688h-247v614q-1 127 -61 196t-170 69t-178 -72t-67 -197z" />
    <glyph glyph-name="o" unicode="o" horiz-adv-x="1345" 
d="M1001 537q0 147 -94 248t-238 101q-145 0 -235 -98q-90 -100 -90 -247t93 -249t239 -102t235 100q90 100 90 247zM1249 541q0 -236 -166 -401q-167 -165 -413 -165t-410 164t-164 399q0 234 166 400t412 166t410 -164t165 -399z" />
    <glyph glyph-name="p" unicode="p" horiz-adv-x="1372" 
d="M1022 540q0 157 -90 253t-220 96t-222 -97t-93 -251q0 -154 92 -251q91 -97 223 -97t221 95t89 252zM1274 541q0 -258 -150 -411t-364 -153t-357 191v-496h-247v1409h247v-180q143 203 357 203t364 -152t150 -411z" />
    <glyph glyph-name="q" unicode="q" horiz-adv-x="1372" 
d="M975 541q0 154 -92 251t-222 97q-131 0 -221 -95t-90 -252t91 -253t221 -96t221 97q92 97 92 251zM1219 -328h-248v508q-143 -203 -357 -203t-364 153t-150 411q0 259 148 411t362 152q213 0 361 -191v168h248v-1409z" />
    <glyph glyph-name="r" unicode="r" horiz-adv-x="845" 
d="M403 412v-412h-247v1081h247v-243q115 276 383 264v-262h-14q-168 0 -268 -110t-101 -318z" />
    <glyph glyph-name="s" unicode="s" 
d="M928 319q0 -163 -113 -251t-289 -88q-254 0 -458 161l110 168q176 -133 354 -133q80 0 124 32t44 85v4q0 78 -217 143l-24 9q-250 67 -311 188q-28 55 -27 129v4q0 150 109 240q110 90 276 90q211 0 397 -123l-98 -176q-168 102 -305 102q-72 0 -112 -30t-40 -78v-4
q0 -49 54 -79t114 -48t62 -20q2 -1 6 -2q119 -30 232 -105q112 -77 112 -213v-5z" />
    <glyph glyph-name="t" unicode="t" horiz-adv-x="839" 
d="M455 868v-530q0 -135 133 -135q80 0 153 37v-203q-98 -55 -223 -55q-311 0 -311 317v569h-137v213h137v297h248v-297h290v-213h-290z" />
    <glyph glyph-name="u" unicode="u" horiz-adv-x="1269" 
d="M866 471v610h248v-1081h-248v168q-129 -190 -338 -191q-180 0 -282 113t-103 303v688h248v-614q1 -127 61 -196t170 -69t177 72t67 197z" />
    <glyph glyph-name="v" unicode="v" horiz-adv-x="1218" 
d="M610 287l293 794h260l-442 -1089h-223l-445 1089h266z" />
    <glyph glyph-name="w" unicode="w" horiz-adv-x="1763" 
d="M987 1085l242 -745l221 741h248l-355 -1089h-221l-241 739l-244 -739h-221l-350 1089h253l218 -741l239 745h211z" />
    <glyph glyph-name="x" unicode="x" horiz-adv-x="1187" 
d="M727 555l399 -555h-270l-266 379l-264 -379h-265l398 549l-383 532h270l250 -356l250 356h264z" />
    <glyph glyph-name="y" unicode="y" horiz-adv-x="1220" 
d="M375 -334q-133 0 -254 66l84 184q76 -41 137 -41t96 28t66 97l-451 1081h264l308 -802l280 802h258l-430 -1112q-65 -167 -145 -235t-213 -68z" />
    <glyph glyph-name="z" unicode="z" horiz-adv-x="1146" 
d="M129 879v202h918v-170l-625 -708h625v-203h-941v170l625 709h-602z" />
    <glyph glyph-name="braceleft" unicode="{" horiz-adv-x="997" 
d="M106 494v188h54q127 0 179 52t52 173l-4 148q0 168 99 264t366 145l43 -164q-176 -49 -227 -105t-52 -175q0 -37 5 -152q1 -114 -53 -180t-160 -100q108 -35 160 -101t53 -180l-5 -151q0 -119 52 -175t227 -106l-43 -164q-266 49 -366 145t-99 265l4 147q0 121 -52 173
t-179 53h-54z" />
    <glyph glyph-name="bar" unicode="|" horiz-adv-x="677" 
d="M438 -262h-198v1896h198v-1896z" />
    <glyph glyph-name="braceright" unicode="}" horiz-adv-x="997" 
d="M838 682h53v-188h-53q-128 0 -180 -52t-52 -174l4 -147q0 -168 -99 -264t-366 -146l-43 164q176 49 228 105t51 176l-4 151q0 115 53 181t160 100q-109 34 -161 100t-52 180l4 152q0 119 -51 175t-228 105l43 164q265 -49 365 -145t100 -264l-4 -148q0 -121 52 -173
t180 -52z" />
    <glyph glyph-name="asciitilde" unicode="~" horiz-adv-x="1013" 
d="M365 571q-37 1 -61 -23t-46 -79l-137 43q35 130 87 192t128 62t176 -41t137 -41t61 24t46 78l137 -41q-35 -131 -87 -193t-128 -62t-176 40q-100 41 -137 41z" />
    <glyph glyph-name="nbspace" unicode="&#xa0;" horiz-adv-x="614" 
 />
    <glyph glyph-name="exclamdown" unicode="&#xa1;" horiz-adv-x="618" 
d="M455 0h-291v72l78 909h137l76 -909v-72zM174 1434h272v-281h-272v281z" />
    <glyph glyph-name="cent" unicode="&#xa2;" horiz-adv-x="1189" 
d="M348 748q0 -238 174 -332l127 659h-4q-129 -6 -213 -105t-84 -222zM666 1290h18l31 156h180l-37 -182q129 -37 242 -160l-150 -160q-80 78 -143 100l-129 -661q6 -2 20 -2q137 8 260 131l144 -141q-180 -205 -434 -207q-16 0 -25 2l-33 -178h-180l41 207
q-162 59 -263 203t-102 327q0 237 161 401t399 164z" />
    <glyph glyph-name="sterling" unicode="&#xa3;" horiz-adv-x="1318" 
d="M291 782v189q0 225 124 354t347 129q279 0 452 -229l-192 -154q-60 76 -118 113t-150 37t-150 -69t-59 -187v-183h510v-213h-510v-350h665v-219h-1081v160l162 49v360h-162v213h162z" />
    <glyph glyph-name="currency" unicode="&#xa4;" horiz-adv-x="1474" 
d="M106 809v174h193q63 215 216 345t347 130t310 -70q118 -70 208 -200l-190 -141q-70 96 -142 141t-177 45q-107 0 -187 -67t-123 -183h438v-174h-479q-4 -57 -4 -87t4 -87h479v-174h-442q43 -121 129 -191t194 -70t177 48q70 47 147 147l180 -131q-96 -139 -214 -214
t-281 -75q-223 1 -380 133t-216 353h-187v174h158q-2 27 -2 85t4 89h-160z" />
    <glyph glyph-name="yen" unicode="&#xa5;" horiz-adv-x="1404" 
d="M823 541v-150h396v-182h-396v-209h-241v209h-396v182h396v150h-396v182h326l-473 711h293l375 -600l374 600h285l-475 -711h328v-182h-396z" />
    <glyph glyph-name="section" unicode="&#xa7;" horiz-adv-x="1294" 
d="M797 569q71 0 113 32t42 80t-55 81q-55 34 -193 68t-207 34t-112 -32t-43 -79q0 -48 55 -81t193 -68t207 -35zM1176 717q0 -180 -220 -240q113 -73 113 -203t-107 -213q-108 -82 -294 -81q-289 0 -473 194l141 139q156 -145 330 -145q82 0 124 28t42 74t-56 78
q-55 31 -256 77t-301 113t-100 179q0 180 219 239q-113 72 -113 203t108 213t294 82q289 0 473 -194l-142 -140q-156 145 -329 146q-82 0 -124 -28t-42 -75t55 -78t256 -77q202 -46 302 -112t100 -179z" />
    <glyph glyph-name="dieresis" unicode="&#xa8;" 
d="M434 1219h-252v241h252v-241zM842 1219h-252v241h252v-241z" />
    <glyph glyph-name="copyright" unicode="&#xa9;" horiz-adv-x="1699" 
d="M866 326q-176 0 -288 116t-113 283q0 168 113 286q112 117 288 117t301 -120l-96 -111q-101 92 -207 92t-175 -76q-69 -75 -69 -185t70 -186t176 -77q106 0 209 96l99 -96q-132 -139 -308 -139zM1513 719q0 279 -190 473t-472 192q-282 0 -473 -196q-192 -196 -192 -474
t190 -472t473 -193q282 -1 473 195t191 475zM1591 719q0 -305 -217 -524t-526 -219t-524 216q-215 218 -215 523t217 524t526 219t524 -217t215 -522z" />
    <glyph glyph-name="ordfeminine" unicode="&#xaa;" horiz-adv-x="798" 
d="M516 1053v37q-62 22 -126 22t-99 -25t-35 -67t30 -67q30 -23 86 -23t100 35t44 88zM662 578h-553v118h553v-118zM653 838h-139v69q-72 -82 -175 -82t-164 49q-60 48 -60 140t66 141q67 49 160 49t175 -22v10q0 125 -143 125q-72 0 -170 -39l-39 111q109 51 229 51
q260 0 260 -250v-352z" />
    <glyph glyph-name="guillemotleft" unicode="&#xab;" horiz-adv-x="1241" 
d="M430 999l188 -96l-270 -360l270 -363l-188 -96l-340 448v17zM944 999l189 -96l-271 -360l271 -363l-189 -96l-338 448v17z" />
    <glyph glyph-name="registered" unicode="&#xae;" horiz-adv-x="1699" 
d="M1044 870q0 123 -153 123h-193v-245h193q72 0 113 32q40 33 40 90zM1196 890q0 -194 -180 -247l209 -293h-176l-189 268h-162v-268h-147v776h346q137 0 218 -66t81 -170zM1513 719q0 279 -190 473t-472 192q-282 0 -473 -196q-192 -196 -192 -474t190 -472t473 -193
q282 -1 473 195t191 475zM1591 719q0 -305 -217 -524t-526 -219t-524 216q-215 218 -215 523t217 524t526 219t524 -217t215 -522z" />
    <glyph glyph-name="macron" unicode="&#xaf;" 
d="M862 1229h-700v182h700v-182z" />
    <glyph glyph-name="degree" unicode="&#xb0;" horiz-adv-x="964" 
d="M676 1113q0 81 -56 139t-138 58t-138 -58q-55 -58 -55 -139t55 -139t138 -58q82 0 138 58t56 139zM823 1113q0 -134 -103 -233q-102 -100 -238 -100t-238 100t-102 233t102 233t237 100t239 -99q103 -100 103 -234z" />
    <glyph glyph-name="plusminus" unicode="&#xb1;" horiz-adv-x="1249" 
d="M1147 410q0 -190 -137 -312t-373 -123q-338 0 -557 250l174 162q164 -184 387 -184q119 0 187 56q68 55 69 153q0 98 -83 151t-232 53h-154v213h160q126 1 198 57t72 147t-66 145q-67 53 -182 53q-172 0 -325 -180l-176 143q100 129 219 197t286 67q221 0 358 -108
q136 -109 136 -277q0 -233 -213 -338q252 -96 252 -325z" />
    <glyph glyph-name="acute" unicode="&#xb4;" 
d="M520 1219h-192l217 335l225 -100z" />
    <glyph glyph-name="mu" unicode="&#xb5;" horiz-adv-x="1740" 
d="M1356 715q0 213 -138 363t-350 149q-212 1 -347 -147q-136 -148 -136 -361t138 -363t349 -150t348 148q136 148 136 361zM1620 719q0 -162 -65 -305t-181 -248l359 -356v-17h-369l-238 227q-125 -45 -258 -45q-326 0 -536 215q-210 214 -211 524q0 310 213 527
q212 217 538 217t537 -215t211 -524z" />
    <glyph glyph-name="paragraph" unicode="&#xb6;" horiz-adv-x="1140" 
d="M637 1434h326v-1434h-254v500h-37q-262 0 -426 122t-164 342t152 345q153 125 403 125z" />
    <glyph glyph-name="periodcentered" unicode="&#xb7;" horiz-adv-x="550" 
d="M412 487h-273v281h273v-281z" />
    <glyph glyph-name="cedilla" unicode="&#xb8;" 
d="M453 20h186l-154 -358l-217 90z" />
    <glyph glyph-name="ordmasculine" unicode="&#xba;" horiz-adv-x="798" 
d="M396 1317q-74 0 -118 -52t-44 -129t48 -131q48 -55 120 -55t118 52q45 52 45 130q0 77 -48 131t-121 54zM694 578h-590v118h590v-118zM400 1444q132 0 220 -90t89 -220q0 -130 -89 -220q-90 -90 -222 -91q-132 0 -220 90q-88 91 -88 221t89 220t221 90z" />
    <glyph glyph-name="guillemotright" unicode="&#xbb;" horiz-adv-x="1241" 
d="M297 84l-188 94l270 361l-270 362l188 98l338 -450v-17zM811 84l-188 94l270 361l-270 362l188 98l340 -450v-17z" />
    <glyph glyph-name="questiondown" unicode="&#xbf;" horiz-adv-x="1107" 
d="M336 408q0 -88 63 -142t172 -55q182 0 334 162l154 -164q-201 -227 -494 -227q-217 0 -348 112t-131 300t113 288t299 133l20 166h166l41 -332l-10 -10q-379 -14 -379 -231zM469 1434h274v-281h-274v281z" />
    <glyph glyph-name="Agrave" unicode="&#xc0;" horiz-adv-x="1617" 
d="M719 1552l-250 236l225 100l217 -336h-192zM1053 569l-248 574l-246 -574h494zM926 1444l630 -1444h-266l-145 346h-678l-148 -346h-258l631 1444h234z" />
    <glyph glyph-name="Aacute" unicode="&#xc1;" horiz-adv-x="1617" 
d="M899 1552h-192l217 336l225 -100zM1053 569l-248 574l-246 -574h494zM926 1444l630 -1444h-266l-145 346h-678l-148 -346h-258l631 1444h234z" />
    <glyph glyph-name="Acircumflex" unicode="&#xc2;" horiz-adv-x="1617" 
d="M807 1688l-158 -138h-192l237 299h230l237 -299h-196zM1053 569l-248 574l-246 -574h494zM926 1444l630 -1444h-266l-145 346h-678l-148 -346h-258l631 1444h234z" />
    <glyph glyph-name="Atilde" unicode="&#xc3;" horiz-adv-x="1617" 
d="M668 1634q-37 0 -61 -22t-48 -80l-137 41q35 131 87 193q51 62 127 62t176 -40q100 -41 138 -41q37 1 61 23t48 79l137 -43q-35 -131 -87 -192q-51 -62 -127 -62t-176 41t-138 41zM1053 569l-248 574l-246 -574h494zM926 1444l630 -1444h-266l-145 346h-678l-148 -346
h-258l631 1444h234z" />
    <glyph glyph-name="Adieresis" unicode="&#xc4;" horiz-adv-x="1617" 
d="M731 1552h-252v242h252v-242zM1139 1552h-252v242h252v-242zM1053 569l-248 574l-246 -574h494zM926 1444l630 -1444h-266l-145 346h-678l-148 -346h-258l631 1444h234z" />
    <glyph glyph-name="Aring" unicode="&#xc5;" horiz-adv-x="1617" 
d="M1053 569l-248 574l-246 -574h494zM936 1581q0 53 -38 90t-89 37t-89 -37t-38 -90t38 -90t89 -37t89 37t38 90zM672 1401q-96 72 -96 172t70 167q71 66 163 66t163 -66q70 -66 70 -168q0 -100 -96 -171l610 -1401h-266l-145 346h-678l-148 -346h-258z" />
    <glyph glyph-name="AE" unicode="&#xc6;" horiz-adv-x="2140" 
d="M997 569v645h-41l-360 -645h401zM2015 1434v-226h-766v-372h674v-226h-674v-385h776v-225h-1028v346h-522l-190 -346h-260l800 1434h1190z" />
    <glyph glyph-name="Ccedilla" unicode="&#xc7;" horiz-adv-x="1511" 
d="M121 715q0 311 209 527t530 216q186 0 316 -57t245 -166l-161 -186q-193 178 -400 178q-207 -1 -341 -147t-134 -361t135 -363t338 -149q123 0 217 46t195 140l162 -164q-113 -119 -239 -181t-298 -71l-135 -315l-215 90l162 238q-258 47 -422 250t-164 475z" />
    <glyph glyph-name="Egrave" unicode="&#xc8;" horiz-adv-x="1372" 
d="M670 1552l-250 236l225 100l217 -336h-192zM1247 1434v-226h-811v-372h719v-226h-719v-385h821v-225h-1073v1434h1063z" />
    <glyph glyph-name="Eacute" unicode="&#xc9;" horiz-adv-x="1372" 
d="M760 1552h-193l217 336l226 -100zM1247 1434v-226h-811v-372h719v-226h-719v-385h821v-225h-1073v1434h1063z" />
    <glyph glyph-name="Ecircumflex" unicode="&#xca;" horiz-adv-x="1372" 
d="M709 1690l-158 -138h-193l238 299h229l238 -299h-197zM1247 1434v-226h-811v-372h719v-226h-719v-385h821v-225h-1073v1434h1063z" />
    <glyph glyph-name="Edieresis" unicode="&#xcb;" horiz-adv-x="1372" 
d="M633 1552h-252v242h252v-242zM1040 1552h-252v242h252v-242zM1247 1434v-226h-811v-372h719v-226h-719v-385h821v-225h-1073v1434h1063z" />
    <glyph glyph-name="Igrave" unicode="&#xcc;" horiz-adv-x="649" 
d="M238 1552l-250 236l225 100l217 -336h-192zM199 1434h252v-1434h-252v1434z" />
    <glyph glyph-name="Iacute" unicode="&#xcd;" horiz-adv-x="649" 
d="M414 1552h-193l217 336l226 -100zM199 1434h252v-1434h-252v1434z" />
    <glyph glyph-name="Icircumflex" unicode="&#xce;" horiz-adv-x="649" 
d="M324 1690l-158 -138h-193l238 299h229l238 -299h-197zM199 1434h252v-1434h-252v1434z" />
    <glyph glyph-name="Idieresis" unicode="&#xcf;" horiz-adv-x="649" 
d="M248 1552h-252v242h252v-242zM655 1552h-252v242h252v-242zM199 1434h252v-1434h-252v1434z" />
    <glyph glyph-name="Eth" unicode="&#xd0;" horiz-adv-x="1662" 
d="M496 834h360v-226h-360v-379h284q222 1 360 137t138 350t-137 351t-361 137h-284v-370zM246 608h-154v226h154v600h534q334 0 548 -204t214 -511t-214 -513t-548 -206h-534v608z" />
    <glyph glyph-name="Ntilde" unicode="&#xd1;" horiz-adv-x="1617" 
d="M668 1634q-37 0 -61 -22t-48 -80l-137 41q35 131 87 193q51 62 127 62t176 -40q100 -41 138 -41q37 1 61 23t48 79l137 -43q-35 -131 -87 -192q-51 -62 -127 -62t-176 41t-138 41zM1186 1434h248v-1434h-211l-791 1020v-1020h-248v1434h234l768 -992v992z" />
    <glyph glyph-name="Ograve" unicode="&#xd2;" horiz-adv-x="1740" 
d="M766 1552l-250 236l225 100l217 -336h-192zM1356 715q0 213 -138 363t-350 149q-212 1 -347 -147q-136 -148 -136 -361t138 -363t349 -150t348 148q136 148 136 361zM1620 719q0 -309 -213 -526t-539 -217t-536 214t-211 524q0 310 213 527q212 217 538 217t537 -215
t211 -524z" />
    <glyph glyph-name="Oacute" unicode="&#xd3;" horiz-adv-x="1740" 
d="M975 1552h-193l217 336l226 -100zM1356 715q0 213 -138 363t-350 149q-212 1 -347 -147q-136 -148 -136 -361t138 -363t349 -150t348 148q136 148 136 361zM1620 719q0 -309 -213 -526t-539 -217t-536 214t-211 524q0 310 213 527q212 217 538 217t537 -215t211 -524z
" />
    <glyph glyph-name="Ocircumflex" unicode="&#xd4;" horiz-adv-x="1740" 
d="M868 1690l-157 -138h-193l238 299h229l238 -299h-197zM1356 715q0 213 -138 363t-350 149q-212 1 -347 -147q-136 -148 -136 -361t138 -363t349 -150t348 148q136 148 136 361zM1620 719q0 -309 -213 -526t-539 -217t-536 214t-211 524q0 310 213 527q212 217 538 217
t537 -215t211 -524z" />
    <glyph glyph-name="Otilde" unicode="&#xd5;" horiz-adv-x="1740" 
d="M729 1634q-37 0 -61 -22t-47 -80l-138 41q35 131 87 193t128 62t176 -40q100 -41 138 -41q38 1 60 23q24 22 48 79l137 -43q-35 -131 -87 -192q-52 -62 -128 -62t-176 41t-137 41zM1356 715q0 213 -138 363t-350 149q-212 1 -347 -147q-136 -148 -136 -361t138 -363
t349 -150t348 148q136 148 136 361zM1620 719q0 -309 -213 -526t-539 -217t-536 214t-211 524q0 310 213 527q212 217 538 217t537 -215t211 -524z" />
    <glyph glyph-name="Odieresis" unicode="&#xd6;" horiz-adv-x="1740" 
d="M793 1552h-252v242h252v-242zM1200 1552h-252v242h252v-242zM1356 715q0 213 -138 363t-350 149q-212 1 -347 -147q-136 -148 -136 -361t138 -363t349 -150t348 148q136 148 136 361zM1620 719q0 -309 -213 -526t-539 -217t-536 214t-211 524q0 310 213 527
q212 217 538 217t537 -215t211 -524z" />
    <glyph glyph-name="Oslash" unicode="&#xd8;" horiz-adv-x="1740" 
d="M1362 715q0 170 -96 307l-656 -739q117 -80 262 -80q211 0 351 149q139 150 139 363zM868 1231q-211 0 -350 -150t-139 -362q0 -170 96 -307l655 739q-117 80 -262 80zM1620 711q0 -301 -213 -518t-539 -218q-233 0 -417 123l-99 -108h-248l203 229q-186 203 -186 504
t213 518t538 217q233 0 418 -123l99 109h247l-202 -230q186 -202 186 -503z" />
    <glyph glyph-name="Ugrave" unicode="&#xd9;" horiz-adv-x="1550" 
d="M698 1542l-249 236l225 100l217 -336h-193zM1389 1434v-813q0 -313 -164 -479t-451 -165q-288 0 -450 162t-162 469v826h252v-816q0 -197 96 -303t266 -106t265 102t96 297v826h252z" />
    <glyph glyph-name="Uacute" unicode="&#xda;" horiz-adv-x="1550" 
d="M852 1542h-193l218 336l225 -100zM1389 1434v-813q0 -313 -164 -479t-451 -165q-288 0 -450 162t-162 469v826h252v-816q0 -197 96 -303t266 -106t265 102t96 297v826h252z" />
    <glyph glyph-name="Ucircumflex" unicode="&#xdb;" horiz-adv-x="1550" 
d="M774 1688l-158 -138h-192l238 299h229l237 -299h-196zM1389 1434v-813q0 -313 -164 -479t-451 -165q-288 0 -450 162t-162 469v826h252v-816q0 -197 96 -303t266 -106t265 102t96 297v826h252z" />
    <glyph glyph-name="Udieresis" unicode="&#xdc;" horiz-adv-x="1550" 
d="M698 1550h-252v242h252v-242zM1106 1550h-252v242h252v-242zM1389 1434v-813q0 -313 -164 -479t-451 -165q-288 0 -450 162t-162 469v826h252v-816q0 -197 96 -303t266 -106t265 102t96 297v826h252z" />
    <glyph glyph-name="Yacute" unicode="&#xdd;" horiz-adv-x="1466" 
d="M829 1542h-192l217 336l225 -100zM860 0h-254v565l-569 869h297l401 -635l406 635h289l-570 -863v-571z" />
    <glyph glyph-name="Thorn" unicode="&#xde;" horiz-adv-x="1378" 
d="M729 463q141 -1 225 71t84 193t-83 187t-226 67h-293v-518h293zM1294 720q0 -228 -162 -354q-162 -128 -411 -128h-285v-238h-252v1434h252v-226h314q250 0 397 -130t147 -358z" />
    <glyph glyph-name="germandbls" unicode="&#xdf;" horiz-adv-x="1269" 
d="M1083 1122q0 -227 -225 -352q311 -106 311 -367q1 -199 -151 -307t-412 -100v190q152 4 234 62t82 158q0 102 -85 161t-231 78v168q231 113 232 287q0 90 -56 144t-155 54q-98 0 -162 -71q-63 -72 -64 -191v-1036h-245v1028q0 223 131 352t345 129t333 -109
q118 -110 118 -278z" />
    <glyph glyph-name="agrave" unicode="&#xe0;" horiz-adv-x="1202" 
d="M526 1219l-250 235l226 100l217 -335h-193zM823 391v68q-111 43 -238 43t-193 -46t-64 -128v-4q0 -74 59 -117t167 -43t188 64t81 163zM1063 0h-246v133q-131 -156 -350 -156q-161 -1 -273 89t-112 245v4q0 170 121 259q121 90 298 90t318 -46v27q0 231 -275 231
q-138 0 -300 -67l-68 199q200 90 424 90t344 -119t119 -338v-641z" />
    <glyph glyph-name="aacute" unicode="&#xe1;" horiz-adv-x="1202" 
d="M674 1219h-193l217 335l226 -100zM823 391v68q-111 43 -238 43t-193 -46t-64 -128v-4q0 -74 59 -117t167 -43t188 64t81 163zM1063 0h-246v133q-131 -156 -350 -156q-161 -1 -273 89t-112 245v4q0 170 121 259q121 90 298 90t318 -46v27q0 231 -275 231q-138 0 -300 -67
l-68 199q200 90 424 90t344 -119t119 -338v-641z" />
    <glyph glyph-name="acircumflex" unicode="&#xe2;" horiz-adv-x="1202" 
d="M598 1356l-158 -137h-192l237 299h230l237 -299h-196zM823 391v68q-111 43 -238 43t-193 -46t-64 -128v-4q0 -74 59 -117t167 -43t188 64t81 163zM1063 0h-246v133q-131 -156 -350 -156q-161 -1 -273 89t-112 245v4q0 170 121 259q121 90 298 90t318 -46v27
q0 231 -275 231q-138 0 -300 -67l-68 199q200 90 424 90t344 -119t119 -338v-641z" />
    <glyph glyph-name="atilde" unicode="&#xe3;" horiz-adv-x="1202" 
d="M774 1219q-76 0 -176 41q-100 40 -138 40t-61 -22t-47 -80l-137 41q35 131 87 193t128 63q76 0 176 -41t138 -41t61 23t47 80l137 -43q-35 -131 -87 -193t-128 -61zM823 391v68q-111 43 -238 43t-193 -46t-64 -128v-4q0 -74 59 -117t167 -43t188 64t81 163zM1063 0h-246
v133q-131 -156 -350 -156q-161 -1 -273 89t-112 245v4q0 170 121 259q121 90 298 90t318 -46v27q0 231 -275 231q-138 0 -300 -67l-68 199q200 90 424 90t344 -119t119 -338v-641z" />
    <glyph glyph-name="adieresis" unicode="&#xe4;" horiz-adv-x="1202" 
d="M522 1219h-252v241h252v-241zM930 1219h-252v241h252v-241zM823 391v68q-111 43 -238 43t-193 -46t-64 -128v-4q0 -74 59 -117t167 -43t188 64t81 163zM1063 0h-246v133q-131 -156 -350 -156q-161 -1 -273 89t-112 245v4q0 170 121 259q121 90 298 90t318 -46v27
q0 231 -275 231q-138 0 -300 -67l-68 199q200 90 424 90t344 -119t119 -338v-641z" />
    <glyph glyph-name="aring" unicode="&#xe5;" horiz-adv-x="1202" 
d="M727 1440q0 51 -38 89t-89 38t-89 -38t-38 -89t38 -89t89 -38t89 38t38 89zM834 1440q0 -92 -71 -159t-163 -67t-163 67t-70 159t71 158t162 67q92 -1 163 -67t71 -158zM823 391v68q-111 43 -238 43t-193 -46t-64 -128v-4q0 -74 59 -117t167 -43t188 64t81 163zM1063 0
h-246v133q-131 -156 -350 -156q-161 -1 -273 89t-112 245v4q0 170 121 259q121 90 298 90t318 -46v27q0 231 -275 231q-138 0 -300 -67l-68 199q200 90 424 90t344 -119t119 -338v-641z" />
    <glyph glyph-name="ae" unicode="&#xe6;" horiz-adv-x="1949" 
d="M584 502q-126 0 -192 -46t-64 -126q0 -80 59 -123t150 -43q172 0 317 135q-33 82 -41 166q-103 37 -229 37zM1338 901q-116 0 -192 -79t-93 -206h557q-12 125 -84 205t-188 80zM82 320q0 164 121 254t298 90t318 -46v27q0 231 -275 231q-138 0 -300 -67l-68 199
q201 90 406 90q279 0 381 -178q141 184 381 184t375 -167q134 -167 134 -417q0 -43 -2 -67h-794q20 -129 104 -202t205 -73q162 0 295 129l145 -129q-172 -202 -438 -202t-424 184q-219 -182 -452 -183q-186 -1 -298 89t-112 254z" />
    <glyph glyph-name="ccedilla" unicode="&#xe7;" horiz-adv-x="1169" 
d="M96 537q0 235 161 401t411 166t422 -186l-154 -166q-130 135 -272 135q-142 -1 -231 -101t-89 -246t91 -248t237 -102t276 136l150 -148q-84 -92 -177 -143t-223 -58l-133 -315l-217 90l164 242q-184 46 -300 196t-116 347z" />
    <glyph glyph-name="egrave" unicode="&#xe8;" horiz-adv-x="1236" 
d="M535 1219l-250 235l225 100l217 -335h-192zM626 901q-116 0 -192 -79t-92 -206h555q-12 125 -84 205q-71 80 -187 80zM655 178q160 0 293 129l146 -129q-168 -203 -443 -203q-239 0 -397 158t-158 401q0 242 150 406t388 164t374 -167q135 -167 135 -417q0 -18 -4 -67
h-795q20 -129 104 -202t207 -73z" />
    <glyph glyph-name="eacute" unicode="&#xe9;" horiz-adv-x="1236" 
d="M702 1219h-192l217 335l225 -100zM626 901q-116 0 -192 -79t-92 -206h555q-12 125 -84 205q-71 80 -187 80zM655 178q160 0 293 129l146 -129q-168 -203 -443 -203q-239 0 -397 158t-158 401q0 242 150 406t388 164t374 -167q135 -167 135 -417q0 -18 -4 -67h-795
q20 -129 104 -202t207 -73z" />
    <glyph glyph-name="ecircumflex" unicode="&#xea;" horiz-adv-x="1236" 
d="M618 1356l-157 -137h-193l238 299h229l238 -299h-197zM626 901q-116 0 -192 -79t-92 -206h555q-12 125 -84 205q-71 80 -187 80zM655 178q160 0 293 129l146 -129q-168 -203 -443 -203q-239 0 -397 158t-158 401q0 242 150 406t388 164t374 -167q135 -167 135 -417
q0 -18 -4 -67h-795q20 -129 104 -202t207 -73z" />
    <glyph glyph-name="edieresis" unicode="&#xeb;" horiz-adv-x="1236" 
d="M543 1219h-252v241h252v-241zM950 1219h-252v241h252v-241zM626 901q-116 0 -192 -79t-92 -206h555q-12 125 -84 205q-71 80 -187 80zM655 178q160 0 293 129l146 -129q-168 -203 -443 -203q-239 0 -397 158t-158 401q0 242 150 406t388 164t374 -167q135 -167 135 -417
q0 -18 -4 -67h-795q20 -129 104 -202t207 -73z" />
    <glyph glyph-name="igrave" unicode="&#xec;" horiz-adv-x="585" 
d="M207 1219l-250 235l225 100l217 -335h-192zM418 0h-248v1081h248v-1081z" />
    <glyph glyph-name="iacute" unicode="&#xed;" horiz-adv-x="585" 
d="M379 1219h-193l217 335l226 -100zM418 0h-248v1081h248v-1081z" />
    <glyph glyph-name="icircumflex" unicode="&#xee;" horiz-adv-x="585" 
d="M291 1356l-158 -137h-192l237 299h230l237 -299h-196zM418 0h-248v1081h248v-1081z" />
    <glyph glyph-name="idieresis" unicode="&#xef;" horiz-adv-x="585" 
d="M215 1219h-252v241h252v-241zM623 1219h-252v241h252v-241zM418 0h-248v1081h248v-1081z" />
    <glyph glyph-name="eth" unicode="&#xf0;" horiz-adv-x="1314" 
d="M971 503q0 132 -90 221q-91 89 -231 89t-225 -87t-85 -220t90 -226q90 -94 228 -94t226 92t87 225zM1214 528q0 -231 -154 -392t-402 -161q-246 0 -404 156t-158 375t136 354t339 135q145 0 285 -84l-215 293l-244 -108l-98 129l248 108l-119 162h285l49 -72l203 88
l96 -129l-209 -90l182 -264q94 -135 137 -250t43 -250z" />
    <glyph glyph-name="ntilde" unicode="&#xf1;" horiz-adv-x="1269" 
d="M816 1219q-76 0 -176 41q-100 40 -139 40q-38 0 -61 -22t-47 -80l-137 41q35 131 87 193q51 62 127 63q76 0 176 -41t139 -41q38 0 61 23t47 80l137 -43q-35 -131 -87 -193q-51 -62 -127 -61zM403 610v-610h-247v1081h247v-168q129 190 338 191q181 0 283 -113t102 -303
v-688h-247v614q-1 127 -61 196t-170 69t-178 -72t-67 -197z" />
    <glyph glyph-name="ograve" unicode="&#xf2;" horiz-adv-x="1345" 
d="M575 1219l-249 235l225 100l217 -335h-193zM1001 537q0 147 -94 248t-238 101q-145 0 -235 -98q-90 -100 -90 -247t93 -249t239 -102t235 100q90 100 90 247zM1249 541q0 -236 -166 -401q-167 -165 -413 -165t-410 164t-164 399q0 234 166 400t412 166t410 -164t165 -399
z" />
    <glyph glyph-name="oacute" unicode="&#xf3;" horiz-adv-x="1345" 
d="M768 1219h-193l218 335l225 -100zM1001 537q0 147 -94 248t-238 101q-145 0 -235 -98q-90 -100 -90 -247t93 -249t239 -102t235 100q90 100 90 247zM1249 541q0 -236 -166 -401q-167 -165 -413 -165t-410 164t-164 399q0 234 166 400t412 166t410 -164t165 -399z" />
    <glyph glyph-name="ocircumflex" unicode="&#xf4;" horiz-adv-x="1345" 
d="M670 1356l-158 -137h-193l238 299h229l238 -299h-197zM1001 537q0 147 -94 248t-238 101q-145 0 -235 -98q-90 -100 -90 -247t93 -249t239 -102t235 100q90 100 90 247zM1249 541q0 -236 -166 -401q-167 -165 -413 -165t-410 164t-164 399q0 234 166 400t412 166
t410 -164t165 -399z" />
    <glyph glyph-name="otilde" unicode="&#xf5;" horiz-adv-x="1345" 
d="M844 1219q-76 0 -176 41q-100 40 -138 40t-61 -22t-47 -80l-137 41q35 131 87 193t128 63q76 0 176 -41t138 -41t60 23t48 80l137 -43q-35 -131 -87 -193t-128 -61zM1001 537q0 147 -94 248t-238 101q-145 0 -235 -98q-90 -100 -90 -247t93 -249t239 -102t235 100
q90 100 90 247zM1249 541q0 -236 -166 -401q-167 -165 -413 -165t-410 164t-164 399q0 234 166 400t412 166t410 -164t165 -399z" />
    <glyph glyph-name="odieresis" unicode="&#xf6;" horiz-adv-x="1345" 
d="M594 1219h-252v241h252v-241zM1001 1219h-251v241h251v-241zM1001 537q0 147 -94 248t-238 101q-145 0 -235 -98q-90 -100 -90 -247t93 -249t239 -102t235 100q90 100 90 247zM1249 541q0 -236 -166 -401q-167 -165 -413 -165t-410 164t-164 399q0 234 166 400t412 166
t410 -164t165 -399z" />
    <glyph glyph-name="oslash" unicode="&#xf8;" horiz-adv-x="1345" 
d="M1008 537q0 106 -52 190l-446 -494q76 -49 164 -49q146 0 240 102t94 251zM670 893q-148 0 -240 -101t-92 -251q0 -104 51 -189l449 492q-72 49 -168 49zM1249 530q0 -224 -166 -390q-166 -165 -413 -165q-170 0 -310 88l-69 -73h-225l163 182q-133 156 -133 378t166 388
t412 166q172 0 309 -88l72 78h225l-166 -187q135 -153 135 -377z" />
    <glyph glyph-name="ugrave" unicode="&#xf9;" horiz-adv-x="1269" 
d="M563 1214l-250 236l226 100l217 -336h-193zM866 471v610h248v-1081h-248v168q-129 -190 -338 -191q-180 0 -282 113t-103 303v688h248v-614q1 -127 61 -196t170 -69t177 72t67 197z" />
    <glyph glyph-name="uacute" unicode="&#xfa;" horiz-adv-x="1269" 
d="M702 1214h-192l217 336l225 -100zM866 471v610h248v-1081h-248v168q-129 -190 -338 -191q-180 0 -282 113t-103 303v688h248v-614q1 -127 61 -196t170 -69t177 72t67 197z" />
    <glyph glyph-name="ucircumflex" unicode="&#xfb;" horiz-adv-x="1269" 
d="M633 1356l-158 -137h-192l237 299h230l237 -299h-196zM866 471v610h248v-1081h-248v168q-129 -190 -338 -191q-180 0 -282 113t-103 303v688h248v-614q1 -127 61 -196t170 -69t177 72t67 197z" />
    <glyph glyph-name="udieresis" unicode="&#xfc;" horiz-adv-x="1269" 
d="M557 1219h-252v241h252v-241zM965 1219h-252v241h252v-241zM866 471v610h248v-1081h-248v168q-129 -190 -338 -191q-180 0 -282 113t-103 303v688h248v-614q1 -127 61 -196t170 -69t177 72t67 197z" />
    <glyph glyph-name="yacute" unicode="&#xfd;" horiz-adv-x="1220" 
d="M692 1214h-192l217 336l225 -100zM375 -334q-133 0 -254 66l84 184q76 -41 137 -41t96 28t66 97l-451 1081h264l308 -802l280 802h258l-430 -1112q-65 -167 -145 -235t-213 -68z" />
    <glyph glyph-name="thorn" unicode="&#xfe;" horiz-adv-x="1372" 
d="M1022 540q0 157 -90 253t-220 96t-222 -97t-93 -251q0 -154 92 -251q91 -97 223 -97t221 95t89 252zM1274 541q0 -258 -150 -411t-364 -153t-357 191v-496h-247v1823h247v-594q143 203 357 203t364 -152t150 -411z" />
    <glyph glyph-name="ydieresis" unicode="&#xff;" horiz-adv-x="1220" 
d="M532 1219h-251v241h251v-241zM940 1219h-252v241h252v-241zM375 -334q-133 0 -254 66l84 184q76 -41 137 -41t96 28t66 97l-451 1081h264l308 -802l280 802h258l-430 -1112q-65 -167 -145 -235t-213 -68z" />
    <glyph glyph-name="dotlessi" unicode="&#x131;" horiz-adv-x="585" 
d="M418 0h-248v1081h248v-1081z" />
    <glyph glyph-name="Lslash" unicode="&#x141;" horiz-adv-x="1329" 
d="M1251 0h-1005v569l-154 -45v234l154 47v629h250v-553l413 123v-234l-413 -125v-416h755v-229z" />
    <glyph glyph-name="lslash" unicode="&#x142;" horiz-adv-x="708" 
d="M477 0h-246v608l-155 -47v236l155 47v651h246v-580l156 48v-236l-156 -47v-680z" />
    <glyph glyph-name="OE" unicode="&#x152;" horiz-adv-x="2248" 
d="M1106 229v975h-223q-223 0 -361 -136t-137 -350q0 -214 137 -351t361 -138h223zM2134 0h-1251q-334 0 -548 204t-214 511t214 513t548 206h1241v-226h-766v-372h674v-226h-674v-385h776v-225z" />
    <glyph glyph-name="oe" unicode="&#x153;" horiz-adv-x="2129" 
d="M987 536q0 146 -92 248t-233 102q-142 0 -230 -98q-88 -100 -88 -246t92 -248t234 -104q142 0 229 100q88 100 88 246zM1518 901q-116 0 -192 -79q-77 -79 -93 -206h557q-14 127 -85 206t-187 79zM96 539q0 233 166 399t406 166q137 0 253 -62t187 -170q66 106 174 168
t240 64q242 0 376 -168t136 -416q0 -18 -4 -67h-795q20 -129 105 -202t206 -73q162 0 295 129l146 -129q-172 -203 -443 -203q-140 -1 -256 61t-184 173q-72 -105 -190 -169t-257 -65q-233 0 -397 165t-164 399z" />
    <glyph glyph-name="Scaron" unicode="&#x160;" horiz-adv-x="1310" 
d="M657 1716l158 135h193l-238 -299h-229l-238 299h197zM397 1053q0 -80 69 -126q69 -45 289 -99q219 -54 331 -150t112 -282t-141 -301q-141 -116 -371 -115q-342 0 -598 229l152 180q215 -186 452 -186q117 0 186 49q68 49 68 132t-65 130q-66 47 -287 100
q-221 54 -335 144t-114 277q-1 187 137 303t353 116q295 0 520 -180l-135 -191q-199 147 -389 148q-109 0 -171 -49t-63 -129z" />
    <glyph glyph-name="scaron" unicode="&#x161;" 
d="M522 1382l158 136h192l-237 -299h-229l-238 299h197zM928 319q0 -163 -113 -251t-289 -88q-254 0 -458 161l110 168q176 -133 354 -133q80 0 124 32t44 85v4q0 78 -217 143l-24 9q-250 67 -311 188q-28 55 -27 129v4q0 150 109 240q110 90 276 90q211 0 397 -123
l-98 -176q-168 102 -305 102q-72 0 -112 -30t-40 -78v-4q0 -49 54 -79t114 -48t62 -20q2 -1 6 -2q119 -30 232 -105q112 -77 112 -213v-5z" />
    <glyph glyph-name="Ydieresis" unicode="&#x178;" horiz-adv-x="1466" 
d="M655 1550h-252v242h252v-242zM1063 1550h-252v242h252v-242zM860 0h-254v565l-569 869h297l401 -635l406 635h289l-570 -863v-571z" />
    <glyph glyph-name="Zcaron" unicode="&#x17d;" horiz-adv-x="1437" 
d="M729 1716l158 135h192l-237 -299h-230l-237 299h196zM160 1210v224h1147v-187l-846 -1024h846v-223h-1174v186l846 1024h-819z" />
    <glyph glyph-name="zcaron" unicode="&#x17e;" horiz-adv-x="1146" 
d="M592 1382l158 136h192l-237 -299h-230l-237 299h196zM129 879v202h918v-170l-625 -708h625v-203h-941v170l625 709h-602z" />
    <glyph glyph-name="florin" unicode="&#x192;" horiz-adv-x="1079" 
d="M934 936v-207h-297l-78 -432q-29 -164 -115 -236t-245 -71q-74 0 -115 10v203q43 -6 82 -6q127 0 149 137l72 395h-164v207h199l37 190q31 160 113 239q83 79 245 79q109 0 189 -23v-209q-188 46 -252 -16q-39 -37 -56 -121l-24 -139h260z" />
    <glyph glyph-name="circumflex" unicode="&#x2c6;" 
d="M510 1356l-158 -137h-192l237 299h230l237 -299h-196z" />
    <glyph glyph-name="caron" unicode="&#x2c7;" 
d="M514 1382l158 136h192l-237 -299h-230l-237 299h196z" />
    <glyph glyph-name="breve" unicode="&#x2d8;" 
d="M512 1214q-150 0 -245 80t-105 224h170q41 -129 180 -129t180 129h170q-10 -144 -105 -224t-245 -80z" />
    <glyph glyph-name="dotaccent" unicode="&#x2d9;" 
d="M641 1219h-258v243h258v-243z" />
    <glyph glyph-name="ring" unicode="&#x2da;" 
d="M639 1440q0 51 -37 89t-90 38t-90 -38t-37 -89t37 -89t90 -38t90 38t37 89zM745 1440q-1 -92 -71 -159t-162 -67t-163 67t-70 159t71 158t162 67q92 -1 162 -67t71 -158z" />
    <glyph glyph-name="ogonek" unicode="&#x2db;" 
d="M555 -70q0 -139 195 -151v-115q-186 -12 -288 47q-101 59 -102 174q0 61 31 135h176q-12 -45 -12 -90z" />
    <glyph glyph-name="tilde" unicode="&#x2dc;" 
d="M684 1219q-76 0 -176 41q-100 40 -138 40t-61 -22t-47 -80l-137 41q35 131 87 193t128 63q76 0 176 -41t138 -41t61 23t47 80l137 -43q-35 -131 -87 -193t-128 -61z" />
    <glyph glyph-name="hungarumlaut" unicode="&#x2dd;" 
d="M299 1219h-184l213 335l217 -100zM672 1219h-185l218 335l217 -100z" />
    <glyph glyph-name="Omega" unicode="&#x3a9;" horiz-adv-x="1540" 
d="M455 1073h286v-205h-282v-868h-248v868h-137v207h137v78q0 354 332 354q104 0 200 -28v-209q-80 27 -145 26q-143 0 -143 -163v-60zM1225 1073h286v-205h-282v-868h-248v868h-137v207h137v78q0 176 85 265t245 89q106 0 202 -28v-209q-80 27 -145 26q-143 0 -143 -163
v-60z" />
    <glyph glyph-name="pi" unicode="&#x3c0;" horiz-adv-x="1699" 
d="M1047 856q0 61 -42 95t-118 34h-150v-264h150q74 0 117 37t43 98zM899 1120q139 0 220 -72t81 -196q0 -125 -90 -195t-227 -69h-146v-246h-151v778h313zM1513 719q0 279 -190 473t-472 192q-282 0 -473 -196q-192 -196 -192 -474t190 -472t473 -193q282 -1 473 195
t191 475zM1591 719q0 -305 -217 -524t-526 -219t-524 216q-215 218 -215 523t217 524t526 219t524 -217t215 -522z" />
    <glyph glyph-name="endash" unicode="&#x2013;" horiz-adv-x="1081" 
d="M967 510h-852v235h852v-235z" />
    <glyph glyph-name="emdash" unicode="&#x2014;" horiz-adv-x="1839" 
d="M1724 510h-1609v235h1609v-235z" />
    <glyph glyph-name="quoteleft" unicode="&#x2018;" horiz-adv-x="550" 
d="M401 1147v-283h-272v240q0 166 78 247t237 93l27 -107q-188 -35 -174 -190h104z" />
    <glyph glyph-name="quoteright" unicode="&#x2019;" horiz-adv-x="550" 
d="M150 1153v281h272v-240q0 -166 -78 -247t-238 -93l-26 107q188 35 174 192h-104z" />
    <glyph glyph-name="quotesinglbase" unicode="&#x201a;" horiz-adv-x="550" 
d="M139 0v281h273v-238q0 -166 -78 -247t-238 -93l-26 104q188 37 174 193h-105z" />
    <glyph glyph-name="quotedblleft" unicode="&#x201c;" horiz-adv-x="1026" 
d="M401 1147v-283h-272v240q0 166 78 247t237 93l27 -107q-188 -35 -174 -190h104zM877 1147v-283h-273v240q0 166 78 247t238 93l26 -107q-188 -35 -176 -190h107z" />
    <glyph glyph-name="quotedblright" unicode="&#x201d;" horiz-adv-x="1026" 
d="M150 1153v281h272v-240q0 -166 -78 -247t-238 -93l-26 107q188 35 174 192h-104zM625 1153v281h272v-240q0 -166 -78 -247t-237 -93l-27 107q188 35 174 192h-104z" />
    <glyph glyph-name="quotedblbase" unicode="&#x201e;" horiz-adv-x="1026" 
d="M139 0v281h273v-238q0 -166 -78 -247t-238 -93l-26 104q188 37 174 193h-105zM614 0v281h273v-238q0 -166 -78 -247t-238 -93l-26 104q188 37 174 193h-105z" />
    <glyph glyph-name="dagger" unicode="&#x2020;" horiz-adv-x="839" 
d="M475 1051l19 -564h-148l19 564l-250 -19v146l247 -19l-24 275h164l-25 -275l248 19v-146z" />
    <glyph glyph-name="daggerdbl" unicode="&#x2021;" horiz-adv-x="880" 
d="M745 256l-247 18l24 -274h-164l25 274l-248 -18v145l248 -18l-16 334l16 334l-248 -19v146l248 -19l-25 275h164l-24 -275l247 19v-146l-247 19l16 -334l-16 -334l247 18v-145z" />
    <glyph glyph-name="bullet" unicode="&#x2022;" horiz-adv-x="1005" 
d="M793 721q0 -119 -85 -204t-205 -85t-205 85t-85 204t85 204t205 85t205 -85t85 -204z" />
    <glyph glyph-name="ellipsis" unicode="&#x2026;" horiz-adv-x="1622" 
d="M406 0h-267v274h267v-274zM944 0h-266v274h266v-274zM1483 0h-266v274h266v-274z" />
    <glyph glyph-name="perthousand" unicode="&#x2030;" horiz-adv-x="2514" 
d="M1458 349q0 89 -45 149t-114 61q-69 0 -111 -59q-42 -58 -41 -148q0 -90 45 -150t114 -60q68 0 110 58q42 60 42 149zM2234 349q0 89 -45 149t-113 61q-68 0 -111 -59q-42 -58 -42 -148t45 -150t114 -60q68 0 110 58q42 60 42 149zM592 1082q0 90 -45 150t-114 60
t-111 -59t-41 -149q0 -90 45 -149q46 -61 114 -61t110 60t42 148zM965 349q0 153 95 261q96 108 244 107t242 -107t94 -259t-95 -261t-243 -106q-148 0 -243 106q-94 106 -94 259zM1741 348q0 154 95 262q96 108 244 107t242 -107t95 -259t-95 -261t-246 -106
q-150 0 -242 105q-93 105 -93 259zM1292 1434h203l-1049 -1434h-202zM437 1450q149 0 243 -106t94 -260q0 -152 -95 -260t-243 -108t-243 107q-95 106 -95 259q0 152 96 260t243 108z" />
    <glyph glyph-name="guilsinglleft" unicode="&#x2039;" horiz-adv-x="724" 
d="M430 999l188 -96l-270 -360l270 -363l-188 -96l-340 448v17z" />
    <glyph glyph-name="guilsinglright" unicode="&#x203a;" horiz-adv-x="724" 
d="M297 84l-188 94l270 361l-270 362l188 98l338 -450v-17z" />
    <glyph glyph-name="fraction" unicode="&#x2044;" horiz-adv-x="940" 
d="M813 1552h225l-956 -1753h-225z" />
    <glyph glyph-name="trademark" unicode="&#x2122;" horiz-adv-x="1413" 
d="M369 1323v-520h-121v520h-195v111h510v-111h-194zM815 803h-117v631h129l191 -299l190 299h125v-631h-116v448l-195 -303h-12l-195 303v-448z" />
    <glyph glyph-name="radical" unicode="&#x221a;" horiz-adv-x="2125" 
d="M1958 0h-250v1495h250v-1495zM455 1073h286v-205h-282v-868h-248v868h-137v207h137v78q0 354 332 354q104 0 200 -28v-209q-80 27 -145 26q-143 0 -143 -163v-60zM1225 1073h286v-205h-282v-868h-248v868h-137v207h137v78q0 176 85 265t245 89q106 0 202 -28v-209
q-80 27 -145 26q-143 0 -143 -163v-60z" />
    <glyph glyph-name="approxequal" unicode="&#x2248;" horiz-adv-x="2125" 
d="M1958 0h-250v1081h250v-1081zM455 1073h286v-205h-282v-868h-248v868h-137v207h137v78q0 354 332 354q104 0 200 -28v-209q-80 27 -145 26q-143 0 -143 -163v-60zM1225 1073h286v-205h-282v-868h-248v868h-137v207h137v78q0 176 85 265t245 89q106 0 202 -28v-209
q-80 27 -145 26q-143 0 -143 -163v-60zM1966 1247h-266v236h266v-236z" />
    <glyph glyph-name="apple" unicode="&#xf8ff;" horiz-adv-x="1980" 
d="M829 96q-25 0 -25 34t26 34q24 0 24 -34t-25 -34zM721 131h-6q-16 0 -17 16q0 13 12 13t11 -8v-21zM1133 162q10 0 0 -19q-10 19 0 19zM786 358q-24 0 -38 20t-14 51q0 30 28 30h12q8 -2 12 -15l19 -71q0 -14 -8 -15h-11zM1393 434q0 30 20 29q21 -1 37 -25t16 -53
t-20 -29t-37 24q-16 24 -16 54zM563 410q-31 0 -31 30q0 18 17 19q16 0 18 -10l6 -39h-10zM803 786h-23q-27 0 -26 23q0 23 26 22h23v-45zM1327 1146q1 30 21 30t36 -24t17 -54q-1 -29 -21 -29t-37 24q-16 23 -16 53zM535 1129q0 5 9 5t13 -1q-6 -9 -14 -9t-8 5zM1137 1129
q0 5 9 5t13 -1q-6 -9 -14 -9t-8 5zM350 1122q-31 0 -31 31q1 18 17 18t18 -10l6 -39h-10zM858 -180q0 -26 22 -25q22 0 23 26q0 26 -22 25q-23 0 -23 -26zM1593 -180q1 -26 23 -25q22 0 22 26t-22 25q-23 0 -23 -26zM1155 -188l-10 24l-10 -24h20zM784 -182q23 0 23 14
t-23 12v-26zM1075 -167q0 15 -22 11v-24q22 -2 22 13zM1219 -182q22 0 22 14t-22 12v-26zM608 111q0 -13 -10 -13h-2v-4h37v4q-12 2 -12 13v41l12 10v4h-37v-4q12 0 12 -10v-19q-4 0 -8 4l-16 17l2 8v4h-29v-4q10 -2 16 -8l21 -19l-27 -26l-14 -11v-4h35v4l-4 11l16 16
q4 4 8 4v-18zM745 94v4q-10 0 -10 11v41l10 12v4h-36q-27 0 -27 -19q0 -10 18 -18l-14 -20l-16 -11v-4h22l15 25q6 8 14 8v-18l-10 -11v-4h34zM829 92q41 0 41 38t-41 38t-41 -38t41 -38zM983 166h-31v-4l2 -10l-12 -19l-12 19l6 10v4h-31v-4q10 0 17 -10l16 -25v-16
l-10 -13v-4h35v4q-10 0 -11 13v16l17 25l14 10v4zM1194 166h-31v-4l4 -10l-18 -39l-10 20l8 17l12 12v4h-53l2 -4q7 0 20 -23l-14 -26l-16 37l4 12v4h-27v-4q8 -2 12 -12l27 -56h2q2 -2 2 0l17 33l18 -33h2l25 56q4 12 12 12h2v4zM1286 109v43q2 10 10 10v4h-59l-4 -21l4 -2
q6 16 18 17h9q8 0 8 -6v-21h-8l-13 10h-4v-26h4q0 12 13 12h8v-23q0 -6 -8 -6h-9q-10 0 -20 19l-4 -2l4 -23h61v4q-10 5 -10 11zM1352 150q0 10 8 10l4 2v4h-31v-4q12 -2 13 -12v-58h6l51 58v-41l-10 -11v-4h28v4q-12 2 -12 11v41l12 12v4h-20l-49 -53v37zM1694 260v12
h-1403v-12h1403zM602 461h4l-2 6h-55q-41 0 -41 -29t39 -32l-19 -33q-8 -17 -24 -17h-4l2 -6h39l24 47q4 6 10 6l7 -30q4 -17 -11 -17h-4l2 -6h60l-2 6q-16 -2 -21 17l-14 71q-2 8 2 12t8 5zM762 467q-51 0 -51 -45q1 -31 23 -51t48 -21h66l-2 8q-14 -4 -21 19l-16 63
q-6 18 16 21l-2 6h-61zM1049 461h4l-2 6h-29l-59 -86l-11 61q-4 17 11 17l4 2l-2 6h-43l2 -6q14 0 18 -19l16 -92l7 -2l61 90l12 -61q4 -21 -8 -21h-4l2 -6h43l-2 6q-12 0 -18 21l-15 65q-5 19 13 19zM1222 358q-30 0 -42 45l-9 39q-1 10 3 14t8 5h4v6h-49l2 -6q18 2 22 -19
l8 -39q11 -55 59 -55t38 49l-11 45q-4 19 11 19h6l-2 6h-60l2 -6q16 2 21 -19l10 -43q9 -41 -21 -41zM1622 414q-19 0 -25 18h-6l11 -47h6q-2 23 16 23h8l6 -35q2 -9 -2 -13t-8 -4h-4l2 -6h60l-3 6q-16 -2 -20 17l-14 71q-2 8 2 12t8 5h4l-2 6h-92v-35h8q-2 27 27 27h8
q10 0 12 -13l6 -32h-8zM379 471q-31 0 -29 -47q-14 47 -41 47t-26 -25l6 -2q0 12 16 13q33 0 49 -68q7 -28 -6 -31h-6l2 -8h57l-2 8q-14 -4 -20 19q-10 35 -10 57t18 21q10 0 25 -15l4 4q-14 27 -37 27zM1491 397q0 27 -24 51t-46 23q-53 0 -53 -45q0 -34 23 -56t46 -22
q54 0 54 49zM1694 555v12h-1403v-12h1403zM580 631v67h-29v133h29v70h-289v-127h84v57h67v-40h-49v-50h49v-43h-67v58h-84v-125h289zM938 631v67h-29v133h29v70h-197q-43 1 -69 -23t-27 -60q0 -36 27 -58t69 -23h62v-39h-31v-67h166zM1327 831v70h-166v-70h23l-31 -47
l-31 47h21v70h-127v-70h24l76 -94v-39h-29v-67h166v67h-30v41l75 92h29zM1694 774v127h-301v-127h73v57h23v-133h-29v-67h166v67h-29v133h23v-57h74zM1694 973v12h-1403v-12h1403zM715 1087q-10 0 -10 -11t10 -19t25 -8q16 0 26 13t20 13q8 -14 20 -14t13 6q0 16 -26 18
q-8 4 -11 30q-6 69 -40 69q-36 0 -35 -21q0 -10 9 -10t9 12t10 13q11 0 15 -16t9 -41q5 -24 19 -36q-16 0 -28 -13t-20 -13t-9 8l4 10q0 10 -10 10zM336 1180q-41 0 -41 -29t39 -33l-19 -33q-8 -16 -24 -16h-4l2 -6h39l24 47q4 6 10 6l7 -31q4 -16 -11 -16h-4l2 -6h60l-2 6
q-16 -2 -21 16l-14 72q-3 14 10 17h4l-2 6h-55zM956 1126q-18 0 -24 19h-6l10 -47h6q-2 23 16 22h9l6 -35q4 -16 -10 -16h-5l3 -6h59l-2 6q-16 -2 -21 16l-14 72q-3 14 10 17h4l-2 6h-92v-35h8q-2 27 27 26h8q10 0 12 -12l7 -33h-9zM1550 1069h-4l2 -6h60l-2 6
q-16 -2 -21 16l-6 33h49l6 -33q4 -16 -10 -16h-4l2 -6h59l-2 6q-16 -2 -20 16l-14 72q-3 14 10 17h4l-2 6h-58l3 -6q14 2 18 -17l6 -31h-49l-6 31q-3 14 10 17h4l-2 6h-59l2 -6q16 2 20 -17l15 -72q4 -16 -11 -16zM553 1098q0 10 -16 10t-17 -21q0 -27 42 -27t42 40
q0 25 -29 35q10 6 11 18q0 31 -35 31t-35 -23q0 -12 9 -12t10 6l-7 12q0 10 15 11q20 0 20 -25q0 -8 -4 -12q-33 3 -33 -11t14 -14t25 10q13 -8 13 -34t-25 -25q-25 0 -25 18q0 6 7 7q3 -3 10 -5q8 1 8 11zM1155 1098q0 10 -16 10t-17 -21q0 -27 42 -27t42 40q0 25 -28 35
q10 6 10 18q0 31 -35 31t-35 -23q0 -12 9 -12t10 6l-7 12q0 10 15 11q20 0 20 -25q0 -8 -4 -12q-33 3 -33 -11t14 -14t25 10q13 -8 13 -34t-25 -25q-25 0 -25 18q0 6 7 7q3 -3 10 -5q8 1 8 11zM1425 1110q1 26 -23 50t-46 24q-53 0 -53 -45q1 -33 23 -56q40 -41 84 -11
q15 11 15 38zM1694 1266v12h-1403v-12h1403zM889 1370v43q2 10 10 10v4h-59l-4 -20l4 -2q6 16 18 16h8q8 0 8 -6v-20h-8l-12 10h-4v-27h4q0 12 12 13h8v-23q0 -6 -8 -6h-8q-11 0 -20 18l-4 -2l4 -22h61v4q-10 5 -10 10zM956 1413v-43l-10 -10v-4h35v4q-10 0 -10 10v21h35
v-21q-2 -10 -11 -10v-4h37v4q-12 -2 -12 10v43l12 10v4h-37v-4q11 -5 11 -10v-18h-35v18q2 10 10 10v4h-35v-4q10 -5 10 -10zM1120 1423q12 0 21 -18h4q0 16 -2 25q-4 -2 -35 -2t-37 2l-2 -25h4q8 18 21 18q6 0 6 -6v-47q-2 -10 -10 -10v-4h34v4q-10 5 -10 10v47q0 6 6 6z
M582 -207q0 -8 -8 -8t-9 8q1 8 9 8t8 -8zM1466 -207q0 -8 -8 -8t-8 8t8 8t8 -8zM317 -145l-24 -70h-2l-23 47l-20 -47h-2l-25 70l12 2l15 -47l20 47h2l21 -47l14 45h12zM432 -145l-24 -70h-2l-23 47l-21 -47h-2l-24 70l12 2l14 -47l21 47h2l21 -47l14 45h12zM547 -145
l-25 -70h-2l-22 47l-21 -47h-2l-24 70l12 2l14 -47l21 47h2l20 -47l15 45h12zM662 -145v-11h-25v-57h-12v57h-25v11h62zM719 -213h-12v29l-29 39l12 2l23 -31l18 29h14l-26 -39v-29zM819 -166q0 -27 -35 -27v-20h-12v68q47 6 47 -21zM915 -178q0 -37 -34 -37q-14 0 -25 10
q-10 10 -10 25q0 37 37 37q14 -1 23 -11t9 -24zM979 -215q-37 0 -37 35t39 37q12 0 25 -9l-5 -10q-8 8 -22 8q-25 0 -25 -26t27 -25q4 0 12 4v15h-18v10h31v-31q-12 -8 -27 -8zM1053 -190v-23h-13v68q47 6 47 -21q0 -14 -14 -20l21 -27h-15l-16 23h-10zM1180 -213h-13l-8 16
h-29l-6 -16h-12l31 70h4zM1253 -166q0 -27 -34 -27v-20h-13v68q47 6 47 -21zM1343 -213h-12v31h-33v-31h-12v68h12v-27h33v27h12v-68zM1411 -213h-12v29l-29 39l12 2l23 -31l18 29h15l-27 -39v-29zM1530 -215q-37 0 -37 35q0 16 11 26q12 10 26 10t22 -6l-4 -10q-6 6 -18 6
q-25 0 -25 -26t27 -25q8 0 20 8l-2 -12q-6 -6 -20 -6zM1651 -178q0 -37 -35 -37q-14 0 -25 10q-10 10 -10 25q0 37 37 37q14 -1 24 -11t9 -24zM1759 -213h-12l-6 41l-21 -43h-4l-20 43l-6 -41h-13l13 70h2l26 -54l27 54h2zM1778 0h-1571v1536h1571v-1536z" />
    <glyph glyph-name="fi" unicode="&#xfb01;" horiz-adv-x="1355" 
d="M1188 0h-248v1081h248v-1081zM455 1073h286v-205h-282v-868h-248v868h-137v207h137v78q0 354 332 354q104 0 200 -28v-209q-80 27 -145 26q-143 0 -143 -163v-60zM1196 1247h-266v236h266v-236z" />
    <glyph glyph-name="fl" unicode="&#xfb02;" horiz-adv-x="1355" 
d="M1188 0h-248v1495h248v-1495zM455 1073h286v-205h-282v-868h-248v868h-137v207h137v78q0 354 332 354q104 0 200 -28v-209q-80 27 -145 26q-143 0 -143 -163v-60z" />
    <glyph glyph-name="NUL" horiz-adv-x="0" 
 />
    </font>
</defs>
</svg>
